<svg xmlns="http://www.w3.org/2000/svg" version="1.1" xmlns:xlink="http://www.w3.org/1999/xlink" xmlns:svgjs="http://svgjs.com/svgjs" width="1440" height="560" preserveAspectRatio="none" viewBox="0 0 1440 560"><g mask="url(&quot;#SvgjsMask1007&quot;)" fill="none"><path d="M649.71 633.36C766.34 627.7 832.81 437.65 1067.79 425.12 1302.77 412.59 1367.49 208.03 1485.87 201.12" stroke="rgba(255, 255, 255, 0.58)" stroke-width="2"></path><path d="M774.85 639.07C917.32 588.41 954.57 167.24 1150.35 164.93 1346.12 162.62 1413.35 405.61 1525.84 416.93" stroke="rgba(255, 255, 255, 0.58)" stroke-width="2"></path><path d="M607.84 570.17C744.58 513.01 682.6 91.79 953.27 88.37 1223.94 84.95 1466.39 255.17 1644.13 256.37" stroke="rgba(255, 255, 255, 0.58)" stroke-width="2"></path><path d="M296.79 565.22C504.54 540.29 630.83 74.72 974.39 73.93 1317.95 73.14 1470.32 332.56 1651.99 337.13" stroke="rgba(255, 255, 255, 0.58)" stroke-width="2"></path><path d="M696.06 568.78C852.57 522.7 897.71 84.81 1128.11 79.67 1358.51 74.53 1444.31 244.75 1560.16 247.67" stroke="rgba(255, 255, 255, 0.58)" stroke-width="2"></path></g><defs><mask id="SvgjsMask1007"><rect width="1440" height="560" fill="#ffffff"></rect></mask></defs></svg>